<?xml version="1.0" standalone="no"?>
<!DOCTYPE svg PUBLIC "-//W3C//DTD SVG 20010904//EN"
 "http://www.w3.org/TR/2001/REC-SVG-20010904/DTD/svg10.dtd">
<svg version="1.0" xmlns="http://www.w3.org/2000/svg"
 width="200.000000pt" height="200.000000pt" viewBox="0 0 200.000000 200.000000"
 preserveAspectRatio="xMidYMid meet">
<metadata>
Created by potrace 1.16, written by Peter Selinger 2001-2019
</metadata>
<g transform="translate(0.000000,200.000000) scale(0.100000,-0.100000)"
fill="#000000" stroke="none">
<path d="M1007 1764 c-4 -4 -33 -8 -64 -10 -79 -5 -132 -14 -139 -25 -3 -5
-16 -9 -29 -9 -13 0 -27 -4 -30 -10 -3 -5 -14 -10 -24 -10 -10 0 -24 -7 -31
-15 -7 -8 -21 -15 -31 -15 -10 0 -24 -9 -31 -20 -7 -11 -21 -20 -30 -20 -9 0
-21 -6 -25 -14 -4 -7 -18 -18 -30 -25 -13 -6 -23 -18 -23 -26 0 -8 -9 -15 -19
-15 -11 0 -23 -9 -26 -20 -3 -11 -15 -25 -26 -30 -10 -6 -19 -17 -19 -25 0 -8
-9 -19 -20 -25 -11 -6 -20 -19 -20 -29 0 -11 -7 -21 -15 -25 -8 -3 -15 -16
-15 -30 0 -13 -7 -26 -15 -30 -8 -3 -15 -16 -15 -30 0 -13 -7 -27 -16 -30 -11
-4 -15 -14 -12 -31 3 -13 0 -26 -6 -28 -5 -2 -11 -14 -12 -28 -1 -13 -5 -32
-9 -42 -4 -9 -5 -26 -2 -37 3 -11 1 -22 -4 -25 -11 -7 -5 -218 7 -236 5 -8 7
-24 6 -36 -2 -11 2 -24 7 -28 6 -3 11 -17 11 -31 0 -27 1 -28 53 -13 30 8 37
14 32 27 -59 154 -42 384 40 540 54 103 168 229 238 262 12 6 9 1 -8 -11 -16
-12 -62 -55 -102 -95 -119 -121 -183 -279 -183 -454 1 -109 31 -240 56 -240
11 0 14 5 9 18 -38 99 -50 259 -26 362 7 30 31 93 53 139 33 68 56 101 122
166 131 130 265 188 441 189 111 1 176 -14 284 -66 158 -75 292 -239 336 -413
22 -84 20 -234 -3 -315 -11 -36 -21 -71 -23 -79 -2 -7 1 -15 8 -18 18 -7 54
120 60 217 7 99 -14 220 -52 306 -13 30 -22 54 -19 54 10 0 55 -115 71 -179
27 -118 21 -237 -23 -388 -5 -19 -1 -25 27 -37 39 -17 59 -7 59 30 0 12 5 26
11 29 5 4 9 17 8 28 -1 12 2 31 7 42 12 26 12 264 0 290 -5 11 -8 30 -7 42 1
11 -3 24 -8 28 -6 3 -11 17 -11 30 0 13 -4 27 -10 30 -5 3 -10 15 -10 25 0 10
-7 25 -15 34 -8 8 -15 22 -15 30 0 9 -9 21 -20 28 -11 7 -20 21 -20 30 0 10
-9 22 -20 28 -11 6 -20 17 -20 26 0 8 -7 17 -16 21 -8 3 -20 16 -25 29 -5 14
-17 24 -28 24 -10 0 -21 9 -24 20 -3 11 -13 23 -24 27 -10 3 -22 12 -26 20 -4
7 -16 13 -25 13 -9 0 -23 9 -30 20 -7 11 -19 20 -28 20 -8 0 -22 7 -30 15 -9
8 -24 15 -34 15 -10 0 -22 5 -25 10 -3 6 -17 10 -30 10 -13 0 -26 4 -29 9 -6
9 -45 17 -126 26 -25 2 -59 7 -76 10 -17 3 -33 2 -37 -1z"/>
<path d="M930 1620 c-225 -36 -415 -196 -490 -413 -39 -115 -37 -302 5 -403
l13 -31 113 23 c63 13 147 27 188 30 73 7 74 7 53 24 -19 16 -142 323 -142
356 0 7 11 21 25 32 14 11 25 29 25 40 0 10 9 31 20 45 11 14 20 31 20 39 0
23 30 58 63 73 47 20 73 47 81 80 14 55 31 65 116 65 94 0 114 -15 115 -88 l1
-47 54 -18 c59 -20 100 -51 100 -76 0 -32 26 -87 53 -113 15 -15 27 -31 27
-35 0 -25 -124 -331 -142 -350 l-21 -23 34 0 c41 0 170 -22 261 -45 37 -10 74
-15 81 -12 27 10 51 125 51 242 0 123 -21 206 -76 303 -40 71 -126 162 -196
208 -114 77 -295 116 -432 94z"/>
<path d="M920 1429 c0 -36 32 -81 86 -124 27 -21 68 -58 90 -82 44 -45 81 -56
104 -28 10 12 8 21 -7 47 -15 25 -44 45 -126 86 -82 41 -108 59 -113 77 -3 13
-12 29 -20 36 -11 9 -14 7 -14 -12z"/>
<path d="M873 1429 c-16 -16 -17 -83 -2 -112 7 -12 29 -42 51 -67 22 -25 44
-51 49 -57 18 -23 58 -26 86 -7 l27 17 -39 31 c-82 65 -142 132 -151 170 -7
30 -11 35 -21 25z"/>
<path d="M980 1420 c0 -15 23 -30 98 -66 111 -53 137 -73 153 -121 17 -51 44
-41 44 17 0 39 -4 47 -33 66 -18 13 -69 36 -113 53 -45 17 -94 40 -109 51 -35
25 -40 25 -40 0z"/>
<path d="M710 1215 c-28 -33 40 -66 175 -86 203 -29 503 27 446 84 -8 8 -15 5
-27 -11 -8 -12 -26 -22 -39 -22 -13 0 -40 -8 -60 -17 -31 -15 -40 -15 -71 -4
-31 11 -41 11 -75 -5 -37 -16 -42 -16 -72 -2 -29 14 -37 14 -67 2 -30 -13 -36
-12 -67 6 -19 11 -47 20 -63 20 -19 0 -35 8 -47 26 -18 24 -20 25 -33 9z"/>
<path d="M841 488 c-130 -12 -131 -15 -24 -55 51 -19 94 -27 174 -31 112 -5
170 4 264 39 74 28 62 34 -85 48 -130 12 -194 12 -329 -1z"/>
<path d="M681 461 c-15 -10 90 -62 174 -87 83 -25 267 -25 350 0 71 21 165 66
165 78 0 15 -30 8 -80 -17 -143 -72 -370 -73 -518 -2 -69 34 -77 36 -91 28z"/>
<path d="M573 433 c-36 -7 -31 -48 7 -62 17 -5 30 -15 30 -20 0 -6 11 -11 24
-11 13 0 26 -7 30 -15 3 -8 16 -15 29 -15 14 0 30 -7 37 -15 7 -9 20 -15 29
-13 9 1 26 -4 39 -10 12 -7 27 -10 33 -7 5 4 16 1 24 -5 8 -7 24 -10 35 -7 11
3 22 2 25 -3 6 -10 174 -10 180 0 3 5 14 6 25 3 11 -3 27 0 35 7 8 6 19 9 24
5 6 -3 21 0 33 7 13 6 30 11 39 10 9 -2 22 4 29 13 7 8 23 15 37 15 13 0 26 7
29 15 4 8 17 15 30 15 13 0 24 4 24 9 0 6 12 16 28 23 15 7 28 23 30 34 3 18
-4 23 -34 28 -30 6 -49 1 -108 -28 -202 -100 -420 -100 -621 -1 -69 35 -78 37
-122 28z"/>
</g>
</svg>
